<?xml version="1.0" encoding="utf-8"?>
<!-- Generator: Adobe Illustrator 16.0.0, SVG Export Plug-In . SVG Version: 6.00 Build 0)  -->
<!DOCTYPE svg PUBLIC "-//W3C//DTD SVG 1.1//EN" "http://www.w3.org/Graphics/SVG/1.1/DTD/svg11.dtd">
<svg version="1.1" id="Layer_1" xmlns="http://www.w3.org/2000/svg" xmlns:xlink="http://www.w3.org/1999/xlink" x="0px" y="0px"
	 width="920px" height="291px" viewBox="0 0 920 291" enable-background="new 0 0 920 291" xml:space="preserve">
<polygon fill="#F26822" points="330.271,133.225 365.38,133.225 365.38,256.278 441.412,256.278 441.412,284.869 330.271,284.869 
	"/>
<g>
	<defs>
		<rect id="SVGID_1_" x="-157.325" y="-590.162" width="1499.325" height="1499.324"/>
	</defs>
	<clipPath id="SVGID_2_">
		<use xlink:href="#SVGID_1_"  overflow="visible"/>
	</clipPath>
	<path clip-path="url(#SVGID_2_)" fill="#F26822" d="M444.483,133.227c0-10.618,8.36-18.809,21.003-18.809
		c12.645,0,21.023,7.794,21.023,18.202c0,11.265-8.359,19.498-21.023,19.498C452.823,152.117,444.483,143.842,444.483,133.227
		 M448.663,168.313h33.793v116.554H448.6L448.663,168.313z"/>
	<path clip-path="url(#SVGID_2_)" fill="#F26822" d="M621.769,218.138v66.729h-33.815v-61.526c0-18.809-8.651-27.503-23.594-27.503
		c-16.261,0-27.962,9.948-27.962,31.351v57.617h-33.795V168.316h32.289v13.646c9.093-9.969,22.738-15.381,38.558-15.381
		C600.954,166.581,621.769,182.609,621.769,218.138"/>
	<polygon clip-path="url(#SVGID_2_)" fill="#F26822" points="691.3,239.162 675.102,255.192 675.102,284.867 641.246,284.867 
		641.246,124.113 675.102,124.113 675.102,215.106 724.445,168.313 764.737,168.313 716.211,217.72 769.146,284.867 
		728.124,284.867 	"/>
	<path clip-path="url(#SVGID_2_)" fill="#F26822" d="M770.526,133.227c0-10.618,8.36-18.809,21.005-18.809
		c12.643,0,21.023,7.794,21.023,18.202c0,11.265-8.357,19.498-21.023,19.498C778.866,152.117,770.526,143.842,770.526,133.227
		 M774.708,168.313h33.729v116.554h-33.794L774.708,168.313z"/>
	<path clip-path="url(#SVGID_2_)" fill="#F26822" d="M904.739,279.246c-6.917,4.974-17.117,7.356-27.503,7.356
		c-27.523,0-43.551-14.084-43.551-41.798v-47.9h-17.975v-25.998h17.975v-28.38h33.793v28.38h29.152v25.998h-29.049v47.461
		c0,9.969,5.435,15.381,14.629,15.381c4.899,0.058,9.685-1.466,13.646-4.345L904.739,279.246z"/>
	<path clip-path="url(#SVGID_2_)" fill="#F26822" d="M141.576,286.08h-12.701c-1.778,0-3.43-0.99-4.204-2.592
		c-9.913-20.488-11.916-43.957-5.554-65.882l3.009,2.959c7.712,7.613,15.064,14.8,19.454,21.376
		c-2.092,12.753-0.567,25.785,4.329,37.641C147.188,282.682,144.928,286.08,141.576,286.08"/>
	<path clip-path="url(#SVGID_2_)" fill="#F26822" d="M285.999,5.407c14.37,0,24.74,13.573,21.196,27.5
		c-15.096,59.291-56.662,98.641-106.167,136.304l-1.3,1.036c-5.442-7.12-13.518-16.922-25.307-29.831
		c0.345-0.328,0.674-0.675,1.003-1.003c20.488-20.655,41.11-41.209,55.581-65.465c9.406-15.25,15.59-32.19,18.249-49.781
		c1.627-10.76,10.787-18.76,21.67-18.76H285.999z"/>
	<path clip-path="url(#SVGID_2_)" fill="#F26822" d="M153.059,115.798l-0.954,0.806c-14.554-15.803-25.028-29.025-32.971-41.587
		l-1.184-1.908l0.938-0.855c0,0,17.058-19.042,18.699-46.024c0.709-11.655,10.201-20.823,21.878-20.823h28.803
		c14.469,0,25.078,13.802,21.129,27.722C203.258,54.781,188.491,86.088,153.059,115.798"/>
	<path clip-path="url(#SVGID_2_)" fill="#F26822" d="M179.501,276.888c-0.215,1.479-0.494,2.943-0.822,4.406
		c-0.094,0.419-0.204,0.859-0.323,1.315c-0.541,2.053-2.42,3.471-4.542,3.471h-8.837c-2.773,0-4.969-2.39-4.674-5.148
		c1.462-13.583-3.182-26.769-10.484-38.774c-1.759-3.226-3.835-6.267-6.2-9.078c-5.82-7.072-13.813-14.586-22.101-22.857
		c-16.724-16.724-34.533-36.572-37.936-62.258c0-0.594-0.149-1.203-0.198-1.809c3.091,2.729,6.314,5.459,9.668,8.224l8.962,7.217
		c5.722,4.506,11.791,9.078,18.517,13.995c5.021,3.858,9.598,7.438,13.731,10.737c11.511,9.208,19.733,16.149,24.667,20.507
		c2.483,2.17,4.193,3.701,5.114,4.555c0.248,0.443,0.46,0.871,0.691,1.301c1.447,2.663,2.844,5.376,4.145,8.139
		C177.231,238.358,182.461,257.729,179.501,276.888"/>
	<path clip-path="url(#SVGID_2_)" fill="#F26822" d="M205.197,286.08h-14.914c-3.326,0-5.574-3.346-4.36-6.439
		c0.126-0.319,0.249-0.639,0.369-0.961c7.696-20.734,5.345-44.399-9.225-62.947c-2.302-2.986-4.756-5.852-7.351-8.586l-0.098-0.098
		c-0.427-0.412-2.401-2.236-6.018-5.395c-3.916-3.435-9.768-8.418-17.662-14.799c-2.368-1.924-4.933-3.965-7.647-6.15
		c-4.1-3.289-8.623-6.83-13.566-10.623c-6.325-4.604-12.498-9.269-18.517-13.995c-7.778-6.151-15.276-12.4-22.412-18.862
		l-0.511-0.459c-2.193-1.952-4.319-3.93-6.38-5.936c-28.221-27.074-49.979-57.934-60.517-97.789
		C12.709,19.136,23.193,5.507,37.577,5.507h33.027c10.943,0,20.276,8.064,21.695,18.914c2.242,17.121,8.335,32.855,16.803,47.634
		c1.201,2.088,2.434,4.177,3.733,6.233l0.345,0.543c9.473,15.014,21.247,29.056,33.711,42.574v0.084
		c1.545,1.642,3.125,3.369,4.687,5.031c2.018,2.192,4.058,4.335,6.117,6.429c3.092,3.141,0.099,0.098,0.132,0.165l3.896,4.044
		c0.707,0.756,1.398,1.562,2.121,2.319c1.94,2.093,3.799,4.105,5.575,6.036c11.692,12.826,19.569,22.446,24.667,29.188
		c2.039,2.647,3.634,4.851,4.933,6.576c0.51,0.756,1.002,1.53,1.512,2.303c0.757,1.134,1.301,1.975,1.645,2.532
		c0.347,0.559,0.494,0.839,0.494,0.839c2.006,3.289,3.898,6.578,5.64,10.048c14.352,27.025,14.701,59.267,1.075,86.532
		C208.599,285.108,206.959,286.08,205.197,286.08"/>
</g>
</svg>
