<?xml version="1.0" encoding="utf-8"?>
<!-- Generator: Adobe Illustrator 16.0.0, SVG Export Plug-In . SVG Version: 6.00 Build 0)  -->
<!DOCTYPE svg PUBLIC "-//W3C//DTD SVG 1.1//EN" "http://www.w3.org/Graphics/SVG/1.1/DTD/svg11.dtd">
<svg version="1.1" id="Layer_1" xmlns="http://www.w3.org/2000/svg" xmlns:xlink="http://www.w3.org/1999/xlink" x="0px" y="0px"
	 width="1000px" height="400px" viewBox="0 0 1000 400" enable-background="new 0 0 1000 400" xml:space="preserve">
<g>
	<path fill="#EBB15B" d="M306.743,260.621c1.02,0.434-28.406,5.176-28.406,5.176l-8.233-14.582h-6.408l8.77,22.621h32.905
		L306.743,260.621z"/>
	<rect x="181.622" y="233.846" fill="#969696" width="220.404" height="22.964"/>
	<polygon opacity="0.4" fill="#878787" enable-background="new    " points="181.622,256.81 402.025,256.81 402.025,233.846 	"/>
	<path fill="#EBB15B" d="M268.554,238.576l-9.304,0.788l-1.466-8.229l11.819-0.152C269.158,232.635,268.554,238.576,268.554,238.576
		z"/>
	<g>
		<path fill="#FECE88" d="M298.032,258.687l-2.272-3.606l-1.704,1.395h-5.375l-2.757-7.996l-4.072-2.494l2.623-6.83l-0.052-0.109
			l-1.525-3.433v-5.733l13.159-1.899l6.39-0.922l5.252-0.755l0.011,1.172l0.029,5.289l0.083,11.096l0.011,1.334l-0.454,0.375
			l-2.538,2.082l-0.695,0.568l4.748,5.551C305.806,255.17,301.36,257.191,298.032,258.687z"/>
		<path fill="#5E3B23" d="M307.699,226.307l-11.643,1.677l-2.791,3.011c-0.408-0.259,1.853,3.743,4.591,6.761l1.311-2.005
			l3.282,1.227l0.654,3.102l-2.581,2.887c0.634,0.688,4.314,4.68,4.314,4.68l2.536-2.074l0.446-1.715L307.699,226.307z"/>
		<path opacity="0.4" fill="#878787" enable-background="new    " d="M307.708,227.474c-1.566-0.157-3.347-0.301-5.264-0.417
			l-6.391,0.922l-13.157,1.898v5.734l1.524,3.434c4.962-1.13,16.014-3.771,23.316-6.281L307.708,227.474z"/>
		<g>
			<path fill="#E97A26" d="M307.596,227.436c3.491-0.811,2.891,0.692,4.022,2.262c1.133,1.577-33.514,8.574-35.754,8.71
				c-2.239,0.135-0.021-3.764,0.671-4.643c0.858-1.091,4.74-1.642,4.74-1.642L307.596,227.436z"/>
			<path fill="#F89521" d="M308.259,223.498c-0.03-0.085-0.067-0.164-0.101-0.246c-2.362-5.783-8.206-9.693-14.786-9.303
				c-6.558,0.396-12.936,4.199-13.757,12.719c-0.045,0.488-0.082,0.988-0.087,1.514c-0.036,1.852,0.171,3.901,0.671,6.163
				c0,0,7.04,0.057,15.204-1.343c9.32-1.595,13.843-4.971,13.843-4.971C309.147,226.438,308.806,224.914,308.259,223.498z"/>
			<path fill="#E97A26" d="M308.158,223.252c-0.179-0.196-0.417-0.469-0.721-0.776c-0.184-0.187-0.379-0.403-0.603-0.628
				c-0.231-0.212-0.492-0.438-0.765-0.68c-0.274-0.244-0.567-0.505-0.878-0.773c-0.329-0.249-0.679-0.512-1.043-0.783
				c-0.182-0.132-0.37-0.271-0.559-0.408c-0.198-0.138-0.406-0.256-0.613-0.391c-0.43-0.249-0.855-0.529-1.322-0.771
				c-0.479-0.23-0.973-0.463-1.474-0.705c-0.522-0.201-1.065-0.388-1.616-0.586c-0.568-0.137-1.148-0.297-1.744-0.408
				c-0.3-0.047-0.606-0.085-0.912-0.129l-0.464-0.057l-0.468-0.014c-0.309-0.01-0.624-0.019-0.938-0.023
				c-0.315,0.005-0.633,0.047-0.952,0.068c-0.633,0.03-1.258,0.188-1.884,0.305c-1.229,0.334-2.437,0.762-3.508,1.383
				c-1.084,0.603-2.087,1.299-2.949,2.076c-0.448,0.375-0.841,0.783-1.238,1.174c-0.369,0.416-0.75,0.797-1.072,1.215
				c-0.676,0.804-1.228,1.625-1.722,2.388c-0.428,0.687-0.798,1.342-1.1,1.942c-0.045,0.488-0.082,0.988-0.086,1.514
				c0.196-0.272,0.416-0.571,0.653-0.889c0.42-0.577,0.936-1.193,1.493-1.859c0.575-0.658,1.196-1.365,1.908-2.051
				c0.345-0.354,0.731-0.68,1.105-1.033c0.402-0.315,0.785-0.678,1.215-0.982c0.835-0.652,1.762-1.219,2.727-1.723
				c0.247-0.119,0.491-0.24,0.737-0.354c0.252-0.108,0.511-0.198,0.767-0.304l0.377-0.147l0.396-0.112
				c0.262-0.078,0.523-0.162,0.784-0.23c0.535-0.094,1.065-0.246,1.611-0.27c0.271-0.023,0.538-0.063,0.81-0.078
				c0.271,0,0.54-0.002,0.808-0.002l0.404-0.005l0.403,0.041c0.267,0.021,0.535,0.041,0.798,0.065
				c0.53,0.069,1.05,0.195,1.564,0.274c0.508,0.142,1.002,0.284,1.498,0.416c0.48,0.173,0.953,0.347,1.408,0.513
				c0.46,0.172,0.887,0.396,1.315,0.58c0.21,0.097,0.424,0.181,0.623,0.284c0.2,0.106,0.396,0.216,0.586,0.319
				c0.387,0.197,0.756,0.395,1.109,0.579c0.344,0.21,0.665,0.403,0.971,0.589c0.308,0.183,0.592,0.361,0.862,0.512
				c0.265,0.17,0.498,0.332,0.716,0.479c0.425,0.293,0.777,0.502,1.011,0.655c0.022,0.019,0.049,0.036,0.07,0.048
				C308.229,223.413,308.191,223.334,308.158,223.252z"/>
			<path fill="#E97A26" d="M299.849,232.711c0.216-0.244-0.998-4.146-1.536-4.516c-0.542-0.371-7.579,1.317-8.181,1.852
				c-0.601,0.536,0.516,3.799,0.516,3.799L299.849,232.711z"/>
		</g>
	</g>
	<path fill="#FECE88" d="M289.158,324.657c-0.552,0.172-4.832,7.955-4.832,7.955l-8.792,6.283l1.921-13.704l9.233-5.376
		L289.158,324.657z"/>
	<g>
		<path fill="#E97A26" d="M346.105,366.856l-16.719,1.615l-11.281-12.812l-6.581-15.619c4.339-8.89,10.192-21.405,12.194-25.698
			l0.116,0.403l8.407,34.768L346.105,366.856z"/>
		<polygon fill="#303030" points="358.162,388.397 331.289,395.628 332.784,388.397 340.483,384.241 329.387,368.473 
			346.105,366.856 		"/>
		<polygon fill="#FECE88" points="294.559,293.734 294.633,294.628 294.555,293.731 		"/>
		<polygon fill="#FECE88" points="294.633,294.628 298.749,313.21 296.617,303.602 		"/>
		<path fill="#FECE88" d="M306.477,349.531c-0.214-0.339-0.315,6.847-0.387,15.538C306.139,355.328,306.231,349.137,306.477,349.531
			z"/>
		<path fill="#303030" d="M290.768,273.684c1.78-5.873,5.498-11.158,5.498-11.158l14.725,5.746l-3.727,21.652l-13.336-3.649
			L290.768,273.684z"/>
		<path fill="#303030" d="M314.078,259.848l-16.046-1.121l0.01-0.021l-0.01-0.021c3.328-1.494,7.773-3.516,10.859-4.916
			L314.078,259.848z"/>
		<path fill="#F89521" d="M323.72,314.343c-2.002,4.293-7.856,16.809-12.195,25.699c-2.74,5.615-4.873,9.777-5.048,9.489
			c-0.244-0.395-0.336,5.797-0.385,15.538c-0.006,1.123-0.01,2.287-0.014,3.499h-0.003c0.003-0.57,0.003-1.147,0.003-1.712h-13.721
			l0.078,1.313l-1.722-27.721l8.036-27.238l-4.116-18.581l-0.073-0.895l-0.631-7.46l13.335,3.649l3.727-21.652l-14.726-5.746
			l1.767-3.799l16.046,1.121l6.237,7.301l-2.669,23.15l6.782,22.521C324.429,312.819,324.166,313.382,323.72,314.343z"/>
		<path fill="#303030" d="M292.356,366.856h13.721c0,0.564,0,1.142-0.003,1.712c-0.004,1.491-0.012,2.992-0.02,4.501
			c-0.022,10.652,0,20.917,0,20.917l-25.349,2.004l3.008-6.394l9.781-4.298l-1.06-17.131L292.356,366.856L292.356,366.856z"/>
	</g>
	<path fill="#FECE88" d="M294.275,272.065c-0.024,0.071,4.612,27.343,4.612,27.343l-15.671,24.119l5.942,1.13l18.956-22.632
		l-1.527-28.242L294.275,272.065z"/>
</g>
<g>
	<path fill="#303030" d="M523.396,335.391l-2.376,0.211l-73.322,6.276c1.57-2.021,3.127-3.895,4.694-5.614
		c24.475-27.171,47.693-18.726,60.563-9.933c3.289,2.251,5.905,4.524,7.69,6.227C522.43,334.253,523.396,335.391,523.396,335.391z"
		/>
	<path opacity="0.4" fill="#878787" enable-background="new    " d="M521.02,335.602l-73.322,6.276
		c1.57-2.021,3.127-3.895,4.694-5.614c16.224-2.679,46.935-7.731,60.563-9.933c3.289,2.251,5.905,4.524,7.69,6.227L521.02,335.602z"
		/>
	<g>
		<polygon fill="#969696" points="527.744,332.807 524.287,348.73 470.316,373.225 439.179,342.845 493.898,336.648 		"/>
	</g>
	<path fill="#303030" d="M454.554,378.308c2.967,0,5.382,2.414,5.382,5.384c0,2.968-2.415,5.382-5.382,5.382
		c-2.97,0-5.384-2.414-5.384-5.382C449.17,380.722,451.585,378.308,454.554,378.308L454.554,378.308z M454.554,371.044
		c-6.986,0-12.648,5.662-12.648,12.647c0,6.986,5.663,12.649,12.648,12.649c6.985,0,12.647-5.663,12.647-12.649
		C467.201,376.706,461.539,371.044,454.554,371.044L454.554,371.044z"/>
	<path fill="#646565" d="M546.015,309.947c-0.82-0.259-1.693,0.202-1.948,1.021L532.5,348l-78.568,34.265
		c-0.789,0.343-1.15,1.262-0.807,2.049c0.256,0.586,0.828,0.935,1.429,0.935c0.207,0,0.418-0.042,0.622-0.13l49.298-21.499
		l17.856,13.039c0.271,0.196,0.595,0.297,0.92,0.297c0.217,0,0.438-0.042,0.644-0.139c0.511-0.234,0.857-0.724,0.907-1.282
		l1.862-21.587l7.733-3.379c0.415-0.177,0.729-0.529,0.862-0.963l11.775-37.708C547.293,311.077,546.838,310.202,546.015,309.947z
		 M521.935,372.513l-14.154-10.338l15.634-6.816L521.935,372.513z"/>
	<polygon opacity="0.4" fill="#878787" enable-background="new    " points="527.744,332.807 524.287,348.73 470.316,373.225 
		493.898,336.648 	"/>
</g>
<g>
	<path fill="#EBB15B" d="M557.328,303.093l-10.709-0.122l-8.694,10.801c0,0,17.691-5.576,19.04-5.243L557.328,303.093z"/>
	<path fill="#EBB15B" d="M596.036,273.73l-13.211,25.078l-27.936,9.722l-4.528-4.027l25.878-12.688c0,0,10.033-25.843,10.087-25.887
		L596.036,273.73z"/>
	<g>
		<polygon fill="#FECE88" points="598.186,245.229 597.733,245.604 595.188,247.687 584.382,256.532 578.994,256.532 
			576.235,248.52 572.156,246.018 574.782,239.175 574.732,239.063 573.203,235.629 573.203,229.878 586.387,227.977 
			592.791,227.053 598.053,226.295 598.064,227.471 598.095,232.773 598.175,243.889 		"/>
		<path fill="#5E3B23" d="M598.175,243.885l-0.449,1.72l-2.538,2.078c0,0-3.69-4.003-4.326-4.689l2.592-2.89l-0.659-3.113
			l-3.287-1.225l-1.313,2.005c-2.743-3.021-5.011-7.029-4.604-6.774l2.8-3.016l11.662-1.678L598.175,243.885z"/>
		<path opacity="0.4" fill="#878787" enable-background="new    " d="M598.064,227.471c-1.568-0.156-3.356-0.303-5.273-0.418
			l-6.404,0.924l-13.184,1.901v5.751l1.529,3.434c4.97-1.132,16.045-3.778,23.362-6.289L598.064,227.471z"/>
		<g>
			<path fill="#E97A26" d="M571.574,232.13c0,0-3.889,0.55-4.748,1.642c-0.692,0.883-2.915,4.787-0.67,4.653
				c2.241-0.133,36.957-7.146,35.823-8.723c-1.13-1.575-0.533-3.084-4.029-2.268L571.574,232.13z"/>
			<path fill="#F89521" d="M599.605,228.026c0,0-4.532,3.389-13.869,4.986c-8.185,1.4-15.234,1.345-15.234,1.345
				c-0.503-2.27-0.712-4.322-0.674-6.179c0.008-0.521,0.038-1.025,0.084-1.519c0.829-8.536,7.214-12.349,13.789-12.738
				c6.59-0.396,12.445,3.527,14.812,9.318c0.034,0.079,0.072,0.163,0.104,0.249C599.168,224.906,599.51,226.433,599.605,228.026z"/>
			<path fill="#E97A26" d="M598.616,223.489c-0.023-0.018-0.05-0.032-0.072-0.048c-0.236-0.152-0.586-0.369-1.013-0.658
				c-0.221-0.145-0.452-0.31-0.715-0.476c-0.271-0.154-0.556-0.335-0.864-0.518c-0.304-0.187-0.631-0.38-0.974-0.59
				c-0.354-0.187-0.719-0.38-1.115-0.584c-0.187-0.103-0.38-0.207-0.586-0.317c-0.197-0.103-0.41-0.187-0.628-0.285
				c-0.426-0.183-0.852-0.409-1.313-0.579c-0.456-0.167-0.928-0.342-1.411-0.517c-0.495-0.13-0.993-0.272-1.503-0.415
				c-0.514-0.08-1.031-0.202-1.564-0.274c-0.262-0.022-0.536-0.043-0.799-0.064l-0.407-0.042l-0.407,0.004
				c-0.266,0-0.532,0.002-0.807,0.006c-0.27,0.014-0.54,0.054-0.81,0.078c-0.549,0.022-1.081,0.175-1.617,0.269
				c-0.259,0.066-0.521,0.151-0.784,0.226l-0.396,0.114l-0.385,0.152c-0.255,0.104-0.514,0.194-0.761,0.301
				c-0.251,0.118-0.494,0.237-0.742,0.355c-0.966,0.504-1.895,1.073-2.731,1.728c-0.43,0.303-0.814,0.666-1.222,0.983
				c-0.373,0.354-0.757,0.68-1.104,1.037c-0.715,0.683-1.335,1.395-1.91,2.049c-0.559,0.67-1.076,1.29-1.499,1.868
				c-0.235,0.315-0.452,0.616-0.65,0.887c0.008-0.521,0.038-1.025,0.084-1.519c0.304-0.601,0.673-1.253,1.1-1.944
				c0.498-0.761,1.05-1.586,1.73-2.391c0.32-0.417,0.704-0.802,1.069-1.216c0.399-0.393,0.792-0.803,1.244-1.176
				c0.86-0.78,1.865-1.477,2.949-2.081c1.081-0.624,2.29-1.051,3.52-1.389c0.632-0.114,1.252-0.272,1.891-0.303
				c0.316-0.021,0.636-0.063,0.951-0.068c0.313,0.005,0.628,0.013,0.944,0.024l0.468,0.012l0.46,0.057
				c0.309,0.046,0.617,0.086,0.917,0.13c0.594,0.106,1.176,0.27,1.747,0.408c0.552,0.2,1.096,0.389,1.62,0.586
				c0.499,0.242,0.989,0.478,1.473,0.708c0.472,0.242,0.898,0.525,1.324,0.774c0.213,0.133,0.419,0.253,0.616,0.39
				c0.19,0.14,0.381,0.276,0.56,0.413c0.369,0.271,0.716,0.535,1.046,0.78c0.313,0.27,0.605,0.532,0.883,0.776
				c0.271,0.245,0.529,0.468,0.762,0.685c0.228,0.225,0.422,0.438,0.604,0.626c0.305,0.312,0.544,0.582,0.723,0.778
				C598.547,223.319,598.585,223.403,598.616,223.489z"/>
			<path fill="#E97A26" d="M580.965,233.855c0,0-1.111-3.269-0.514-3.805c0.605-0.537,7.655-2.228,8.199-1.857
				c0.541,0.369,1.755,4.281,1.541,4.524L580.965,233.855z"/>
		</g>
	</g>
	<g>
		<polygon fill="#E97A26" points="647.646,365.076 633.309,387.683 630.436,377.459 634.408,367.089 622.674,359.73 605.609,349.04 
			596.04,326.476 611.48,305.25 614.224,314.922 621.978,342.315 631.711,350.95 632.917,352.02 		"/>
		<polygon fill="#303030" points="647.646,365.076 633.309,387.683 630.425,377.459 634.408,367.089 622.674,359.73 631.711,350.95 
			632.917,352.02 		"/>
	</g>
	<path fill="#FECE88" d="M614.817,312.987c0,0-17.483,37.634-17.986,36.789c-0.231-0.365-0.331,7.869-0.403,17.362
		c0,2.031-0.007,4.132-0.022,6.223c-0.02,10.677,0,20.957,0,20.957l-25.397,2.007l3.014-6.401l9.801-4.307l-1.062-17.166
		l-0.08-1.313l-1.647-26.465l8.056-27.295l-2.139-9.628l-1.986-8.987l-0.084-0.901l-0.624-7.471l-1.351-15.84l1.454-3.118
		c0,0,0-0.012,0.011-0.012l2.227-4.83l1.769-3.803l0.012-0.023l-0.012-0.024l-5.46-8.667l10.947-2.568l5.398,6.313l5.198,6.088
		l2.385,2.797l3.858,4.524l-2.671,23.194L614.817,312.987z"/>
	<path fill="#303030" d="M606.834,262.706l-0.901,8.875l-4.577,22.841l-7.85,8.188l-3.983-4.052l-4.639-4.695l-3.793-20.09
		c1.78-5.883,5.506-11.181,5.506-11.181l1.772-3.803l0.012-0.023l-0.012-0.024c3.333-1.495,7.789-3.516,10.882-4.922l5.198,6.088
		L606.834,262.706z"/>
	<path fill="#FECE88" d="M555.251,309.319l-10.705-0.122l-8.696,10.801c0,0,17.69-5.576,19.042-5.241L555.251,309.319z"/>
	<path fill="#F89521" d="M614.817,312.987c0,0-17.483,37.634-17.986,36.789c-0.273-0.443-0.357,7.31-0.403,19.076l-13.667-0.401
		l-1.728-27.777l8.056-27.295l-4.125-18.615l-0.708-8.372l13.363,3.656l3.736-21.701l-14.759-5.755l1.772-3.803l16.08,1.118
		l6.247,7.321l-2.675,23.194L614.817,312.987z"/>
	<path fill="#303030" d="M596.405,373.361c-0.02,10.677,0,20.957,0,20.957l-25.397,2.007l3.014-6.401l9.801-4.307l-1.062-17.166
		l-0.08-1.313h13.747C596.428,369.17,596.421,371.271,596.405,373.361z"/>
	<path fill="#FECE88" d="M596.036,279.959l-13.211,25.078l-27.936,9.72l-4.528-4.025l25.878-12.689c0,0,10.033-25.839,10.087-25.887
		L596.036,279.959z"/>
</g>
<g>
	<g>
		<g>
			<g>
				<path fill="#FECE88" d="M935.916,263.758l1.436-6.682l-0.828-0.159l-3.023-0.566l-0.544-0.105l-0.586-1.103L927.479,246
					l-2.338-4.356l-0.516-0.971l4.674-1.733l5.688-2.116l11.71-4.357l2.565,4.709l0.273,3.507l0.008,0.11l5.212,4.429l-2.246,3.882
					l1.302,7.798l-4.441,2.417l-2.03-0.379l-0.11,6.596C943.813,265.801,939.087,263.524,935.916,263.758z"/>
			</g>
			<g>
				<path fill="#5E3B23" d="M932.371,255.145l1.133,1.207l3.024,0.558c0,0,1.252-4.932,1.469-5.774l-3.423-1.212l-0.845-2.841
					l2.16-2.482l1.979,1.056c0.911-3.707,0.988-8.009,0.768-7.608l-3.645-1.22l-10.364,3.85L932.371,255.145z"/>
			</g>
			<g opacity="0.4">
				<path fill="#878787" d="M927.479,246c7.148-1.221,17.458-4.017,22.058-5.319l-0.273-3.506l-2.566-4.709l-11.71,4.355
					l-5.688,2.118c-1.526,0.953-2.934,1.869-4.155,2.704L927.479,246z"/>
			</g>
			<g>
				<g>
					<path fill="#E97A26" d="M949.041,233.58c0,0,3.448-1.291,4.646-0.778c0.963,0.408,4.539,2.614,2.626,3.508
						c-1.904,0.896-33.635,10.719-33.404,8.916c0.235-1.8-0.935-2.761,2.309-3.667L949.041,233.58z"/>
				</g>
				<g>
					<path fill="#F89521" d="M924.117,242.793c0,0,5.245,0.739,13.654-2.139c7.364-2.521,13.151-5.728,13.151-5.728
						c-0.601-2.086-1.347-3.862-2.201-5.367c-0.242-0.421-0.488-0.821-0.747-1.201c-4.489-6.624-11.451-6.883-17.043-4.258
						c-5.605,2.634-8.68,8.472-8.05,14.28c0.009,0.079,0.018,0.163,0.029,0.245C923.088,240.039,923.49,241.438,924.117,242.793z"/>
				</g>
				<g>
					<path fill="#E97A26" d="M922.912,238.626c0.01-0.021,0.026-0.045,0.035-0.068c0.128-0.229,0.323-0.565,0.543-0.991
						c0.113-0.217,0.235-0.458,0.377-0.715c0.155-0.247,0.314-0.524,0.484-0.812c0.166-0.29,0.348-0.591,0.536-0.915
						c0.21-0.315,0.426-0.643,0.655-0.976c0.115-0.173,0.226-0.348,0.345-0.527c0.118-0.173,0.253-0.34,0.391-0.515
						c0.269-0.344,0.518-0.719,0.822-1.066c0.304-0.341,0.612-0.694,0.935-1.052c0.351-0.332,0.695-0.672,1.047-1.014
						c0.393-0.301,0.764-0.633,1.172-0.931c0.204-0.135,0.42-0.276,0.628-0.413l0.318-0.214l0.335-0.182
						c0.22-0.112,0.446-0.233,0.666-0.354c0.232-0.109,0.471-0.2,0.704-0.302c0.459-0.225,0.965-0.337,1.451-0.503
						c0.245-0.059,0.497-0.107,0.752-0.165l0.374-0.084l0.379-0.049c0.256-0.026,0.51-0.072,0.769-0.097
						c0.253-0.014,0.512-0.028,0.769-0.039c1.021-0.017,2.038,0.025,3.02,0.189c0.488,0.056,0.97,0.185,1.438,0.261
						c0.472,0.121,0.938,0.215,1.378,0.35c0.893,0.247,1.719,0.549,2.487,0.829c0.756,0.299,1.461,0.572,2.069,0.852
						c0.333,0.16,0.646,0.304,0.932,0.436c-0.241-0.422-0.487-0.821-0.747-1.202c-0.52-0.354-1.114-0.729-1.777-1.099
						c-0.748-0.402-1.566-0.829-2.486-1.188c-0.454-0.195-0.941-0.336-1.431-0.514c-0.502-0.141-1.006-0.299-1.543-0.405
						c-1.06-0.251-2.198-0.371-3.361-0.384c-1.166-0.024-2.354,0.171-3.517,0.442c-0.569,0.186-1.155,0.339-1.692,0.6
						c-0.271,0.122-0.553,0.234-0.817,0.372c-0.255,0.146-0.51,0.292-0.761,0.437l-0.379,0.225l-0.361,0.257
						c-0.231,0.174-0.465,0.342-0.694,0.515c-0.438,0.358-0.851,0.749-1.257,1.12c-0.365,0.404-0.729,0.805-1.07,1.2
						c-0.307,0.429-0.608,0.84-0.906,1.246c-0.272,0.405-0.502,0.833-0.745,1.227c-0.107,0.205-0.228,0.396-0.327,0.595
						c-0.098,0.199-0.189,0.396-0.284,0.588c-0.177,0.388-0.346,0.757-0.51,1.112c-0.135,0.363-0.262,0.703-0.379,1.031
						c-0.117,0.32-0.231,0.623-0.327,0.9c-0.085,0.283-0.151,0.548-0.215,0.784c-0.116,0.392-0.191,0.721-0.251,0.963
						C922.891,238.46,922.9,238.544,922.912,238.626z"/>
				</g>
				<g>
					<path fill="#E97A26" d="M942.074,239.208c0,0-0.538-3.178-1.272-3.348c-0.737-0.169-7.302,1.604-7.582,2.151
						c-0.277,0.549,0.463,4.296,0.747,4.401L942.074,239.208z"/>
				</g>
			</g>
		</g>
		<g>
			<path fill="#EBB15B" d="M946.203,278.946l21.078-16.993l6.738-23.924l-4.609-3.506l-9.896,22.543
				c0,0-22.374,14.156-22.411,14.215L946.203,278.946z"/>
		</g>
		<g>
			<g>
				<path fill="#E97A26" d="M915.088,350.412l7.905-32.498l0.103-0.378c1.884,4.013,7.388,15.713,11.464,24.021l-6.188,14.601
					l-10.6,11.976l-15.713-1.514L915.088,350.412z"/>
			</g>
			<g>
				<polygon fill="#303030" points="902.059,366.62 917.771,368.133 907.344,382.867 914.576,386.752 915.981,393.512 
					890.726,386.752 				"/>
			</g>
			<g>
				<polygon fill="#FECE88" points="950.511,298.273 950.433,299.111 950.506,298.273 				"/>
			</g>
			<g>
				<polygon fill="#FECE88" points="948.57,307.499 946.566,316.479 950.433,299.111 				"/>
			</g>
			<g>
				<path fill="#FECE88" d="M939.668,364.95c-0.069-8.124-0.161-14.842-0.365-14.523
					C939.532,350.057,939.619,355.846,939.668,364.95z"/>
			</g>
			<g>
				<path fill="#303030" d="M951.097,291.305l-12.534,3.408l-6.408-23.265l16.747-2.343c0,0,3.493,4.942,5.165,10.427
					L951.097,291.305z"/>
			</g>
			<g>
				<path fill="#303030" d="M937.033,260.922c2.903,1.311,7.08,3.195,10.209,4.593l-0.014,0.02l0.014,0.021l-15.088,1.045
					L937.033,260.922z"/>
			</g>
			<g>
				<path fill="#F89521" d="M922.434,316.11l6.368-21.044l-2.507-21.639l5.859-6.827l15.088-1.045l1.659,3.55l-16.747,2.343
					l6.407,23.265l12.535-3.408l-0.591,6.969l-0.074,0.838l-3.865,17.367l7.552,25.457l-1.618,25.911l0.074-1.227h-12.897
					c0,0.527,0,1.067,0.004,1.601h-0.004c-0.001-1.136-0.007-2.221-0.009-3.271c-0.049-9.104-0.136-14.894-0.366-14.523
					c-0.162,0.27-2.165-3.62-4.742-8.87c-4.076-8.308-9.58-20.008-11.464-24.021C922.679,316.639,922.434,316.11,922.434,316.11z"/>
			</g>
			<g>
				<path fill="#303030" d="M952.574,366.62l-0.073,1.227l-0.996,16.012l9.191,4.017l2.83,5.978l-23.827-1.878
					c0,0,0.022-9.59,0-19.547c-0.009-1.408-0.014-2.814-0.019-4.207c-0.004-0.533-0.004-1.073-0.004-1.601H952.574L952.574,366.62z"
					/>
			</g>
		</g>
		<g>
			<polygon fill="#EBB15B" points="969.639,235.095 969.83,227.862 978.121,220.969 982.928,232.974 978.507,237.8 973.416,240.61 
							"/>
		</g>
		<g>
			<path fill="#FECE88" d="M937.096,281.494l20.289,17.927l28.241-0.769l2.68-5.128l-27.409-2.581c0,0-10.935-12.326-14.354-16.017
				L937.096,281.494z"/>
		</g>
		<g>
			<path fill="#303030" d="M994.023,365.846l-1.019-1.791c5.932-3.377,5.667-28.86,5.063-38.395c0-7.54-0.271-13.336-0.688-17.79
				c-0.704,6.781-1.719,12.854-2.673,16.444c-2.602,9.78-8.138,19.862-12.581,19.165c-3.161-0.516-4.386-5.709-3.74-15.889
				c0.916-14.44,7.438-36.511,14.261-36.511c0.03,0,0.069,0,0.101,0c1.327,0.046,2.474,0.883,3.442,2.532
				c0.143-10.08-0.855-18.691-3.717-19.995c-1.464-0.673-3.95,1.384-6.817,5.621c-2.907,4.289-5.362,5.987-7.51,5.197
				c-7.956-2.938-3.606-45.709-2.654-54.255l2.05,0.229c-2.299,20.584-3.405,50.353,1.315,52.091
				c0.512,0.192,2.013,0.125,5.092-4.415c3.698-5.462,6.77-7.534,9.378-6.343c4.526,2.063,5.402,14.461,4.757,27.063
				c1.369,5.706,2.045,14.605,2.045,26.79C1000.354,329.167,1002.143,361.226,994.023,365.846z M992.637,293.145
				c-4.055,0-11.147,18.122-12.195,34.574c-0.815,12.894,1.725,13.68,2.017,13.729c2.087,0.346,7.395-6.905,10.256-17.666
				c1.565-5.887,2.834-15.52,3.297-24.787c-1.308-5.333-2.847-5.839-3.328-5.853C992.668,293.145,992.655,293.145,992.637,293.145z"
				/>
		</g>
		<g>
			<polygon fill="#FECE88" points="988.306,293.524 997.479,290.536 1002.121,300.854 987.966,302.29 984.906,298.668 			"/>
		</g>
	</g>
	<g>
		<g>
			<path fill="#878787" d="M971.476,208.383L971.476,208.383c2.084,0,3.955,1.395,4.555,3.396c0.487,1.639,0.055,3.419-1.128,4.657
				c-1.032,1.083-0.698,2.491-0.377,3.856c0.624,2.628,0.304,2.723-0.071,2.837c-0.146,0.044-0.244,0.053-0.299,0.053
				c-0.507,0-1.183-1.707-1.473-2.44c-0.537-1.352-1.044-2.632-2.433-3.007c-1.61-0.43-2.856-1.637-3.333-3.233
				c-0.748-2.515,0.684-5.169,3.193-5.919C970.559,208.45,971.017,208.383,971.476,208.383L971.476,208.383z M971.476,206.322
				c-0.648,0-1.305,0.091-1.95,0.285c-3.609,1.078-5.66,4.877-4.582,8.485c0.7,2.353,2.559,4.043,4.769,4.637
				c1.085,0.289,1.454,5.511,4.443,5.511c0.274,0,0.568-0.043,0.888-0.142c3.818-1.137,0.562-6.412,1.351-7.238
				c1.637-1.712,2.339-4.235,1.611-6.67C977.122,208.233,974.41,206.322,971.476,206.322L971.476,206.322z"/>
		</g>
	</g>
	<g>
		<polygon fill="#646565" points="978.946,229.568 974.22,230.981 972.212,224.248 976.933,222.84 		"/>
	</g>
	<g>
		<path fill="#646565" d="M986.949,370.02c-0.537,0.576-1.291,0.737-1.695,0.368l0,0c-0.394-0.371-0.286-1.136,0.243-1.711
			l2.52-2.717c0.537-0.577,1.289-0.737,1.692-0.367l0,0c0.397,0.373,0.294,1.135-0.243,1.714L986.949,370.02z"/>
	</g>
	<g>
		<path fill="#646565" d="M990.331,372.87c-0.536,0.576-1.299,0.729-1.72,0.338l0,0c-0.418-0.386-0.319-1.163,0.211-1.736
			l2.524-2.719c0.53-0.571,1.3-0.725,1.714-0.339l0,0c0.42,0.387,0.321,1.164-0.21,1.74L990.331,372.87z"/>
	</g>
	<g>
		<path fill="#878787" d="M993.581,370.948l1.953-2.106c1.549-1.67,1.454-4.278-0.215-5.829c-1.666-1.545-4.274-1.447-5.826,0.218
			l-1.954,2.108L993.581,370.948z"/>
	</g>
</g>
<g>
	<path fill="#FECE88" d="M68.465,265.204l-1.406-6.782l0.839-0.152l3.063-0.552l0.552-0.103l0.602-1.108l5.018-9.225l2.4-4.395
		l0.525-0.978l-4.718-1.791l-5.741-2.183l-11.824-4.495l-2.63,4.75l-0.301,3.545l-0.011,0.112l-5.312,4.447l2.247,3.942l-1.372,7.89
		l4.479,2.479l2.059-0.37l0.903,6.37C61.295,266.901,65.255,264.944,68.465,265.204z"/>
	<path fill="#5E3B23" d="M72.118,256.504l-1.161,1.214l-3.062,0.546c0,0-1.233-5.001-1.445-5.861l3.471-1.197l0.878-2.874
		l-2.17-2.523l-2.008,1.054c-0.9-3.76-0.946-8.117-0.725-7.714l3.701-1.205l10.466,3.974L72.118,256.504z"/>
	<path opacity="0.4" fill="#878787" enable-background="new    " d="M79.533,242.888c-1.23-0.854-2.649-1.792-4.192-2.769
		l-5.741-2.183l-11.824-4.495l-2.63,4.75l-0.301,3.545c4.648,1.35,15.06,4.257,22.289,5.546L79.533,242.888z"/>
	<g>
		<path fill="#E97A26" d="M55.396,234.554c0,0-3.485-1.332-4.701-0.828c-0.978,0.412-4.612,2.618-2.685,3.539
			c1.923,0.918,33.977,11.094,33.756,9.27c-0.223-1.825,0.97-2.793-2.309-3.729L55.396,234.554z"/>
		<path fill="#F89521" d="M80.558,244.057c0,0-5.313,0.712-13.803-2.263c-7.439-2.606-13.275-5.894-13.275-5.894
			c0.623-2.105,1.39-3.9,2.267-5.417c0.245-0.427,0.505-0.828,0.767-1.211c4.592-6.675,11.644-6.886,17.283-4.189
			c5.659,2.71,8.731,8.641,8.047,14.518c-0.008,0.081-0.019,0.167-0.032,0.25C81.622,241.275,81.206,242.693,80.558,244.057z"/>
		<path fill="#E97A26" d="M81.811,239.851c-0.009-0.022-0.024-0.047-0.035-0.071c-0.125-0.236-0.32-0.573-0.541-1.007
			c-0.116-0.224-0.232-0.465-0.375-0.728c-0.156-0.25-0.312-0.531-0.487-0.824c-0.166-0.293-0.346-0.601-0.534-0.933
			c-0.21-0.316-0.429-0.65-0.659-0.99c-0.112-0.176-0.226-0.356-0.344-0.536c-0.118-0.179-0.254-0.344-0.387-0.522
			c-0.274-0.351-0.523-0.732-0.83-1.086c-0.302-0.35-0.617-0.71-0.938-1.073c-0.355-0.341-0.696-0.685-1.054-1.035
			c-0.396-0.304-0.771-0.646-1.18-0.948c-0.206-0.141-0.42-0.283-0.63-0.424l-0.32-0.22l-0.337-0.183
			c-0.224-0.119-0.451-0.242-0.674-0.365c-0.235-0.113-0.474-0.206-0.71-0.312c-0.463-0.229-0.977-0.35-1.464-0.521
			c-0.248-0.063-0.506-0.114-0.76-0.172l-0.377-0.09l-0.386-0.053c-0.261-0.027-0.517-0.074-0.775-0.102
			c-0.258-0.015-0.519-0.029-0.78-0.045c-1.034-0.026-2.063,0.014-3.059,0.169c-0.497,0.054-0.983,0.178-1.461,0.254
			c-0.475,0.118-0.946,0.211-1.393,0.346c-0.909,0.239-1.748,0.54-2.525,0.817c-0.771,0.3-1.485,0.568-2.1,0.854
			c-0.341,0.153-0.661,0.3-0.95,0.432c0.245-0.427,0.504-0.828,0.767-1.211c0.526-0.358,1.133-0.729,1.808-1.104
			c0.757-0.401,1.593-0.825,2.523-1.183c0.461-0.196,0.955-0.334,1.452-0.509c0.509-0.142,1.025-0.296,1.568-0.401
			c1.072-0.245,2.227-0.36,3.405-0.361c1.178-0.019,2.378,0.186,3.559,0.472c0.572,0.193,1.165,0.352,1.706,0.618
			c0.276,0.127,0.558,0.241,0.823,0.384c0.259,0.147,0.517,0.302,0.771,0.449l0.384,0.225l0.359,0.265
			c0.234,0.177,0.471,0.35,0.703,0.526c0.442,0.365,0.852,0.766,1.261,1.142c0.368,0.417,0.734,0.822,1.077,1.229
			c0.307,0.431,0.61,0.852,0.907,1.264c0.276,0.416,0.502,0.847,0.745,1.248c0.111,0.209,0.229,0.403,0.328,0.606
			c0.097,0.2,0.193,0.402,0.282,0.597c0.177,0.395,0.348,0.769,0.51,1.129c0.134,0.367,0.259,0.718,0.377,1.045
			c0.114,0.327,0.228,0.634,0.319,0.917c0.087,0.287,0.153,0.556,0.219,0.797c0.107,0.394,0.184,0.728,0.243,0.975
			C81.834,239.681,81.824,239.767,81.811,239.851z"/>
		<path fill="#E97A26" d="M62.408,240.3c0,0,0.565-3.215,1.312-3.382c0.747-0.165,7.382,1.682,7.663,2.236
			c0.278,0.556-0.502,4.346-0.791,4.447L62.408,240.3z"/>
	</g>
</g>
<path fill="#EBB15B" d="M62.959,285.064l-26.208-8.034l-14.266-24.799l3.011-5.029l16.716,22.308c0,0,26.358,4.881,26.415,4.927
	L62.959,285.064z"/>
<g>
	<path fill="#E97A26" d="M89.709,351.463l-8.004-32.899l-0.105-0.386c-1.908,4.063-7.48,15.908-11.606,24.32l6.263,14.783
		l10.735,12.123l15.908-1.529L89.709,351.463z"/>
	<polygon fill="#303030" points="102.899,367.876 86.992,369.404 97.549,384.327 90.227,388.26 88.805,395.101 114.376,388.26 	"/>
	<polygon fill="#FECE88" points="53.845,298.674 53.92,299.523 53.849,298.675 	"/>
	<polygon fill="#FECE88" points="55.808,308.015 57.836,317.107 53.92,299.523 	"/>
	<path fill="#FECE88" d="M64.823,366.182c0.068-8.222,0.164-15.023,0.366-14.702C64.957,351.108,64.871,356.966,64.823,366.182z"/>
	<path fill="#303030" d="M53.248,291.619l12.69,3.452l6.486-23.559l-16.951-2.373c0,0-3.538,5.005-5.233,10.56L53.248,291.619z"/>
	<path fill="#303030" d="M67.486,260.856c-2.937,1.326-7.165,3.235-10.333,4.651l0.011,0.021l-0.011,0.018l15.271,1.061
		L67.486,260.856z"/>
	<path fill="#F89521" d="M82.27,316.737l-6.451-21.312l2.54-21.909l-5.935-6.91l-15.271-1.061l-1.679,3.594l16.95,2.372
		l-6.486,23.56l-12.69-3.453l0.601,7.057l0.071,0.848l3.917,17.584l-7.649,25.778l1.642,26.232l-0.076-1.242h13.058
		c0,0.53,0,1.082-0.003,1.62h0.003c0.002-1.145,0.006-2.246,0.013-3.314c0.048-9.216,0.133-15.074,0.365-14.701
		c0.167,0.271,2.195-3.668,4.805-8.981c4.126-8.413,9.699-20.258,11.606-24.32C82.022,317.267,82.27,316.737,82.27,316.737z"/>
	<path fill="#303030" d="M51.753,367.876l0.075,1.241l1.008,16.212l-9.308,4.069l-2.862,6.051l24.124-1.899
		c0,0-0.021-9.714,0-19.797c0.009-1.426,0.014-2.846,0.018-4.257c0.003-0.539,0.003-1.09,0.003-1.62H51.753z"/>
</g>
<path fill="#FECE88" d="M66.883,281.977l-23.214,14.58l-28.09-5.413l-1.839-5.563l27.809,1.931c0,0,12.951-10.523,16.972-13.646
	L66.883,281.977z"/>
<polygon fill="#FECE88" points="13.739,285.58 1.056,279.007 1.056,295.071 12.641,294.399 16.293,291.282 "/>
<polygon fill="#E97A26" points="10.452,263.73 19.659,228.731 22.486,229.513 15.391,265.267 "/>
<polygon fill="#969696" points="33.619,228.721 27.485,230.933 13.004,226.905 13.089,226.509 14.318,221.293 25.106,223.464 
	28.654,224.172 "/>
<polygon fill="#EBB15B" points="25.497,248.296 22.597,241.567 14.415,237.741 10.452,250.561 18.181,254.175 22.925,254.901 "/>
<polygon fill="#969696" points="2.273,223.147 6.271,223.147 6.271,221.298 7.488,221.298 7.488,227.166 6.229,227.085 
	6.229,225.145 2.273,225.227 "/>
<polygon opacity="0.4" fill="#878787" enable-background="new    " points="33.619,228.721 27.485,230.933 13.004,226.905 
	13.089,226.509 25.106,223.464 28.654,224.172 "/>
<g>
	<path fill="#FECE88" d="M762.345,254.092l-0.104-7.238l-2.238,0.419l-4.885-2.66l1.431-8.58l-2.471-4.269l5.735-4.874l0.008-0.121
		l0.302-3.854l2.822-5.182l12.885,4.791l6.257,2.329l5.14,1.909l-0.566,1.064l-2.573,4.794l-5.38,10.062l-0.646,1.211l-0.595,0.115
		l-3.327,0.624l-0.913,0.172l1.582,7.359C771.318,251.902,766.104,254.388,762.345,254.092z"/>
	<path fill="#5E3B23" d="M787.226,226.767l-11.4-4.238l-4.013,1.34c-0.242-0.437-0.159,4.298,0.846,8.376l2.175-1.161l2.377,2.727
		l-0.931,3.129l-3.762,1.33c0.238,0.931,1.616,6.356,1.616,6.356l3.326-0.614l1.246-1.332L787.226,226.767z"/>
	<path opacity="0.4" fill="#878787" enable-background="new    " d="M786.659,227.827c-1.345-0.917-2.894-1.926-4.573-2.975
		l-6.256-2.328l-12.885-4.791l-2.823,5.182l-0.302,3.854c5.062,1.43,16.402,4.508,24.267,5.852L786.659,227.827z"/>
	<g>
		<path fill="#E97A26" d="M786.577,227.737c3.569,0.994,2.281,2.054,2.541,4.034c0.252,1.98-34.658-8.826-36.753-9.81
			c-2.104-0.985,1.83-3.411,2.886-3.864c1.321-0.56,5.115,0.861,5.115,0.861L786.577,227.737z"/>
		<path fill="#F89521" d="M789.112,224.509c0.015-0.092,0.023-0.185,0.032-0.272c0.696-6.387-2.688-12.812-8.857-15.709
			c-6.149-2.888-13.809-2.604-18.749,4.685c-0.28,0.422-0.557,0.857-0.823,1.322c-0.938,1.655-1.756,3.61-2.42,5.901
			c0,0,6.368,3.53,14.47,6.304c9.249,3.166,15.02,2.351,15.02,2.351C788.476,227.604,788.921,226.061,789.112,224.509z"/>
		<path fill="#E97A26" d="M789.145,224.236c-0.064-0.267-0.149-0.629-0.273-1.056c-0.07-0.261-0.147-0.554-0.241-0.864
			c-0.104-0.307-0.227-0.639-0.356-0.993c-0.128-0.357-0.271-0.733-0.416-1.135c-0.181-0.387-0.368-0.794-0.562-1.222
			c-0.103-0.21-0.204-0.43-0.312-0.645c-0.109-0.222-0.242-0.431-0.361-0.656c-0.267-0.435-0.52-0.902-0.821-1.351
			c-0.326-0.445-0.66-0.899-0.994-1.367c-0.377-0.438-0.773-0.876-1.181-1.326c-0.445-0.404-0.897-0.837-1.381-1.23
			c-0.252-0.19-0.506-0.376-0.764-0.566l-0.397-0.283l-0.416-0.242c-0.278-0.16-0.557-0.323-0.84-0.482
			c-0.288-0.15-0.598-0.274-0.9-0.41c-0.587-0.286-1.235-0.454-1.861-0.659c-1.276-0.302-2.583-0.515-3.869-0.485
			c-1.279,0.011-2.531,0.145-3.695,0.42c-0.59,0.119-1.146,0.291-1.701,0.448c-0.535,0.195-1.07,0.348-1.572,0.566
			c-1.01,0.395-1.913,0.861-2.732,1.303c-0.729,0.41-1.384,0.82-1.958,1.213c-0.28,0.421-0.557,0.856-0.823,1.322
			c0.314-0.146,0.662-0.306,1.03-0.478c0.666-0.312,1.442-0.612,2.274-0.94c0.846-0.31,1.752-0.642,2.735-0.91
			c0.487-0.15,0.997-0.254,1.516-0.385c0.519-0.087,1.044-0.226,1.585-0.288c1.08-0.177,2.197-0.229,3.321-0.211
			c0.283,0.017,0.566,0.031,0.847,0.047c0.281,0.026,0.563,0.075,0.846,0.104l0.416,0.054l0.411,0.097
			c0.278,0.058,0.558,0.111,0.829,0.178c0.53,0.182,1.089,0.309,1.594,0.555c0.254,0.111,0.517,0.212,0.772,0.332
			c0.245,0.134,0.492,0.265,0.735,0.392l0.369,0.195l0.347,0.237c0.234,0.15,0.468,0.303,0.693,0.454
			c0.446,0.327,0.856,0.692,1.287,1.022c0.393,0.377,0.769,0.749,1.151,1.115c0.355,0.396,0.698,0.782,1.029,1.159
			c0.337,0.383,0.61,0.796,0.907,1.173c0.15,0.192,0.296,0.375,0.43,0.566c0.128,0.194,0.251,0.388,0.378,0.578
			c0.252,0.371,0.49,0.729,0.721,1.072c0.207,0.358,0.406,0.692,0.587,1.009c0.191,0.318,0.363,0.623,0.536,0.892
			c0.155,0.285,0.288,0.548,0.412,0.788c0.244,0.47,0.457,0.836,0.599,1.092c0.01,0.023,0.026,0.051,0.038,0.075
			C789.127,224.417,789.138,224.324,789.145,224.236z"/>
		<path fill="#E97A26" d="M776.949,228.673c0.313-0.113,1.13-4.236,0.825-4.839c-0.31-0.601-7.533-2.556-8.343-2.37
			c-0.813,0.189-1.399,3.684-1.399,3.684L776.949,228.673z"/>
	</g>
</g>
<g>
	<path fill="#EBB15B" d="M759.308,268.141c0.047,0.063,26.342,12.6,26.342,12.6l13.76,23.331l4.574-4.43l-10.49-25.258
		l-25.245-15.805L759.308,268.141z"/>
	<polygon fill="#EBB15B" points="802.988,296.9 808.919,299.306 814.377,303.998 810.696,317.74 800.736,311.294 799.584,303.42 	
		"/>
</g>
<g>
	<path fill="#878787" d="M744.395,321.724c-2.388-2.659-5.7-4.012-9.835-4.012c-4.137,0-7.443,1.353-9.838,4.012
		c-5.05,5.631-4.086,15.082-4.04,15.481l2.253-0.242c-0.01-0.091-0.896-8.859,3.486-13.73c1.939-2.16,4.676-3.253,8.139-3.253
		c3.462,0,6.205,1.092,8.143,3.253c4.376,4.871,3.493,13.64,3.483,13.73l2.256,0.242
		C748.479,336.806,749.447,327.354,744.395,321.724z"/>
</g>
<g>
	<path fill="#303030" d="M747.313,334.607h-25.507v23.488c0,0,4.44,3.639,12.753,3.639c8.316,0,12.754-3.639,12.754-3.639V334.607z"
		/>
</g>
<polygon fill="#FECE88" points="744.346,313.351 744.19,318.564 731.018,327.016 727.948,314.947 737.896,311.245 "/>
<path fill="#303030" d="M734.559,332.782c-7.042,0-12.753,0.816-12.753,1.825s5.711,1.825,12.753,1.825
	c7.044,0,12.754-0.816,12.754-1.825S741.603,332.782,734.559,332.782z"/>
<path fill="#878787" d="M734.559,333.555c-6.46,0-11.7,0.816-11.7,1.824s5.24,1.826,11.7,1.826c6.466,0,11.705-0.818,11.705-1.826
	S741.024,333.555,734.559,333.555z"/>
<path fill="#FECE88" d="M761.132,266.638c-0.422,5.519-1.4,23.622-1.4,23.622l-21.836,20.985l5.817,2.579l24.854-18.671l5.2-29.331
	L761.132,266.638z"/>
<g>
	<path fill="#E97A26" d="M812.055,365.328l-17.288,1.663l-11.663-13.173l-6.805-16.065c4.485-9.143,10.539-22.014,12.612-26.428
		l0.113,0.419l8.697,35.751L812.055,365.328z"/>
	<polygon fill="#303030" points="824.526,387.477 796.737,394.913 798.283,387.477 806.241,383.203 794.767,366.991 
		812.055,365.327 	"/>
	<polygon fill="#FECE88" points="758.755,290.134 758.832,291.055 758.749,290.132 	"/>
	<polygon fill="#FECE88" points="758.832,291.055 763.09,310.164 760.884,300.279 	"/>
	<path fill="#FECE88" d="M771.078,347.512c-0.222-0.35-0.321,7.041-0.4,15.976C770.733,353.474,770.826,347.106,771.078,347.512z"/>
	<path fill="#303030" d="M754.835,269.514c1.841-6.034,5.685-11.473,5.685-11.473l18.423,2.576l-7.048,25.601l-13.792-3.752
		L754.835,269.514z"/>
	<path fill="#303030" d="M778.942,255.286l-16.598-1.15l0.014-0.021l-0.014-0.022c3.441-1.539,8.038-3.613,11.229-5.055
		L778.942,255.286z"/>
	<path fill="#F89521" d="M788.911,311.325c-2.073,4.414-8.127,17.285-12.612,26.428c-2.837,5.771-5.039,10.056-5.221,9.759
		c-0.252-0.405-0.345,5.96-0.4,15.976c-0.005,1.159-0.007,2.354-0.012,3.601h-0.005c0.005-0.585,0.005-1.18,0.005-1.761h-14.187
		l0.079,1.35l-1.781-28.506l8.313-28.008l-4.258-19.108l-0.078-0.921l-0.651-7.668l13.792,3.751l7.049-25.6l-18.424-2.577
		l1.825-3.904l16.598,1.15l6.447,7.51l-2.759,23.807l7.01,23.156C789.641,309.759,789.37,310.338,788.911,311.325z"/>
	<path fill="#303030" d="M756.479,365.327h14.187c0,0.581,0,1.176-0.005,1.762c-0.004,1.531-0.009,3.079-0.017,4.625
		c-0.028,10.958,0,21.512,0,21.512l-26.216,2.065l3.113-6.577l10.113-4.421l-1.097-17.616L756.479,365.327L756.479,365.327z"/>
</g>
</svg>
