<?xml version="1.0" encoding="utf-8"?>
<!-- Generator: Adobe Illustrator 16.0.0, SVG Export Plug-In . SVG Version: 6.00 Build 0)  -->
<!DOCTYPE svg PUBLIC "-//W3C//DTD SVG 1.1//EN" "http://www.w3.org/Graphics/SVG/1.1/DTD/svg11.dtd">
<svg version="1.1" id="Layer_1" xmlns="http://www.w3.org/2000/svg" xmlns:xlink="http://www.w3.org/1999/xlink" x="0px" y="0px"
	 width="1000px" height="1000px" viewBox="0 0 1000 1000" enable-background="new 0 0 1000 1000" xml:space="preserve">
<g>
	<defs>
		<rect id="SVGID_1_" x="-758.945" y="-758.945" width="2517.891" height="2517.891"/>
	</defs>
	<clipPath id="SVGID_2_">
		<use xlink:href="#SVGID_1_"  overflow="visible"/>
	</clipPath>
	<path clip-path="url(#SVGID_2_)" fill="#FF6600" d="M432.982,969.65h-42.508c-5.948,0-11.476-3.314-14.067-8.67
		c-33.177-68.568-39.875-147.111-18.584-220.485l10.069,9.904c25.811,25.479,50.411,49.53,65.105,71.543
		c-7,42.673-1.898,86.283,14.487,125.965C451.767,958.271,444.199,969.65,432.982,969.65"/>
	<path clip-path="url(#SVGID_2_)" fill="#FF6600" d="M916.311,30.35c48.089,0,82.796,45.425,70.932,92.026
		c-50.517,198.425-189.627,330.114-355.3,456.157l-4.349,3.466c-18.215-23.828-45.239-56.628-84.696-99.829
		c1.155-1.1,2.258-2.256,3.357-3.356c68.572-69.123,137.583-137.912,186.011-219.086c31.478-51.036,52.17-107.73,61.068-166.593
		c5.444-36.015,36.102-62.784,72.527-62.784H916.311z"/>
	<path clip-path="url(#SVGID_2_)" fill="#FF6600" d="M471.411,399.785l-3.193,2.698c-48.704-52.886-83.761-97.133-110.339-139.179
		l-3.963-6.383l3.138-2.863c0,0,57.088-63.724,62.58-154.025c2.371-39.003,34.14-69.682,73.214-69.682h96.398
		c48.42,0,83.924,46.188,70.714,92.769C639.406,195.589,589.986,300.356,471.411,399.785"/>
	<path clip-path="url(#SVGID_2_)" fill="#FF6600" d="M559.902,938.887c-0.716,4.952-1.65,9.852-2.75,14.749
		c-0.315,1.402-0.682,2.88-1.08,4.4c-1.807,6.867-8.1,11.614-15.198,11.614h-29.576c-9.278,0-16.631-7.999-15.639-17.227
		c4.889-45.457-10.65-89.588-35.09-129.765c-5.886-10.795-12.835-20.97-20.746-30.379c-19.485-23.665-46.229-48.813-73.967-76.497
		c-55.967-55.965-115.568-122.391-126.96-208.354c0-1.981-0.495-4.015-0.661-6.051c10.348,9.134,21.132,18.27,32.36,27.514
		l29.992,24.162c19.152,15.077,39.458,30.375,61.968,46.831c16.802,12.916,32.121,24.893,45.952,35.937
		c38.523,30.819,66.039,54.041,82.549,68.624c8.311,7.264,14.036,12.385,17.117,15.245c0.826,1.487,1.54,2.918,2.311,4.349
		c4.843,8.914,9.521,17.995,13.868,27.241C552.31,809.946,569.809,874.774,559.902,938.887"/>
	<path clip-path="url(#SVGID_2_)" fill="#FF6600" d="M645.897,969.65h-49.913c-11.125,0-18.652-11.194-14.589-21.549
		c0.42-1.071,0.832-2.142,1.235-3.217c25.755-69.396,17.889-148.587-30.871-210.665c-7.707-9.987-15.916-19.576-24.603-28.727
		l-0.328-0.328c-1.432-1.379-8.034-7.485-20.144-18.051c-13.098-11.505-32.689-28.18-59.104-49.53
		c-7.924-6.442-16.511-13.266-25.59-20.583c-13.723-11.007-28.857-22.858-45.403-35.551c-21.169-15.41-41.824-31.021-61.967-46.834
		c-26.03-20.584-51.126-41.494-75.011-63.123l-1.704-1.541c-7.336-6.532-14.455-13.154-21.354-19.867
		C122.111,359.48,49.294,256.209,14.026,122.833C1.718,76.292,36.803,30.682,84.939,30.682H195.47
		c36.618,0,67.854,26.988,72.606,63.295c7.499,57.303,27.892,109.96,56.231,159.421c4.016,6.989,8.146,13.977,12.492,20.855
		l1.156,1.819c31.7,50.245,71.102,97.243,112.819,142.479v0.273c5.171,5.505,10.454,11.283,15.685,16.84
		c6.749,7.338,13.572,14.511,20.472,21.518c10.346,10.513,0.33,0.33,0.438,0.552l13.042,13.538c2.368,2.531,4.681,5.228,7.103,7.758
		c6.492,7.006,12.712,13.74,18.655,20.198c39.131,42.926,65.49,75.118,82.549,97.68c6.825,8.86,12.164,16.238,16.512,22.017
		c1.703,2.533,3.355,5.119,5.061,7.703c2.534,3.8,4.35,6.605,5.505,8.475c1.155,1.871,1.653,2.81,1.653,2.81
		c6.712,11.006,13.042,22.012,18.873,33.622c48.027,90.439,49.195,198.344,3.599,289.593
		C657.283,966.399,651.791,969.65,645.897,969.65"/>
</g>
</svg>
